<?xml version="1.0" standalone="no"?>
<!DOCTYPE svg PUBLIC "-//W3C//DTD SVG 20010904//EN"
 "http://www.w3.org/TR/2001/REC-SVG-20010904/DTD/svg10.dtd">
<svg version="1.0" xmlns="http://www.w3.org/2000/svg"
 width="700.000000pt" height="700.000000pt" viewBox="0 0 700.000000 700.000000"
 preserveAspectRatio="xMidYMid meet">
<metadata>
Created by potrace 1.14, written by Peter Selinger 2001-2017
</metadata>
<g transform="translate(0.000000,700.000000) scale(0.100000,-0.100000)"
fill="#000000" stroke="none">
<path d="M3355 6990 c-78 -13 -155 -35 -235 -67 -67 -27 -2254 -1271 -2370
-1348 -214 -142 -368 -377 -422 -645 -19 -95 -19 -2765 0 -2860 47 -235 176
-453 350 -591 83 -65 2214 -1292 2397 -1379 151 -73 249 -94 425 -94 161 0
258 18 384 72 38 16 584 324 1213 683 820 469 1168 672 1225 718 155 124 278
316 336 526 l27 100 0 1395 0 1395 -27 100 c-57 207 -184 407 -337 527 -54 43
-442 270 -1213 710 -623 356 -1168 663 -1210 683 -42 19 -114 44 -160 55 -96
24 -293 34 -383 20z m225 -734 c66 -23 2254 -1278 2294 -1315 21 -20 48 -56
60 -81 l21 -45 3 -1294 c3 -1468 8 -1366 -76 -1451 -38 -38 -268 -174 -1157
-681 -610 -348 -1125 -638 -1145 -645 -44 -16 -107 -17 -151 -3 -19 7 -536
297 -1149 647 -894 508 -1124 644 -1162 682 -84 85 -79 -17 -76 1451 l3 1294
21 45 c12 25 39 61 60 81 39 36 2252 1304 2303 1319 40 12 112 11 151 -4z"/>
</g>
</svg>
